HIERARCHY
ROOT Hips
{
	OFFSET 0.00000 0.00000 0.00000
	CHANNELS 6 Xposition Yposition Zposition Zrotation Yrotation Xrotation 
	JOINT LHipJoint
	{
		OFFSET 0 0 0
		CHANNELS 3 Zrotation Yrotation Xrotation
		JOINT LeftUpLeg
		{
			OFFSET 1.36443 -1.53315 0.80540
			CHANNELS 3 Zrotation Yrotation Xrotation
			JOINT LeftLeg
			{
				OFFSET 2.27494 -6.25036 0.00000
				CHANNELS 3 Zrotation Yrotation Xrotation
				JOINT LeftFoot
				{
					OFFSET 2.17461 -5.97470 0.00000
					CHANNELS 3 Zrotation Yrotation Xrotation
					JOINT LeftToeBase
					{
						OFFSET 0.22144 -0.60841 2.08966
						CHANNELS 3 Zrotation Yrotation Xrotation
						End Site
						{
							OFFSET 0.00000 -0.00000 1.09206
						}
					}
				}
			}
		}
	}
	JOINT RHipJoint
	{
		OFFSET 0 0 0
		CHANNELS 3 Zrotation Yrotation Xrotation
		JOINT RightUpLeg
		{
			OFFSET -1.29957 -1.53315 0.80539
			CHANNELS 3 Zrotation Yrotation Xrotation
			JOINT RightLeg
			{
				OFFSET -2.23917 -6.15209 0.00000
				CHANNELS 3 Zrotation Yrotation Xrotation
				JOINT RightFoot
				{
					OFFSET -2.18029 -5.99030 0.00000
					CHANNELS 3 Zrotation Yrotation Xrotation
					JOINT RightToeBase
					{
						OFFSET -0.22354 -0.61416 1.89975
						CHANNELS 3 Zrotation Yrotation Xrotation
						End Site
						{
							OFFSET -0.00000 -0.00000 1.00221
						}
					}
				}
			}
		}
	}
	JOINT LowerBack
	{
		OFFSET 0 0 0
		CHANNELS 3 Zrotation Yrotation Xrotation
		JOINT Spine
		{
			OFFSET -0.04725 2.10352 -0.01215
			CHANNELS 3 Zrotation Yrotation Xrotation
			JOINT Spine1
			{
				OFFSET 0.04471 2.09612 -0.07192
				CHANNELS 3 Zrotation Yrotation Xrotation
				JOINT Neck
				{
					OFFSET 0 0 0
					CHANNELS 3 Zrotation Yrotation Xrotation
					JOINT Neck1
					{
						OFFSET -0.01586 1.38087 0.11506
						CHANNELS 3 Zrotation Yrotation Xrotation
						JOINT Head
						{
							OFFSET -0.01055 1.38869 -0.12115
							CHANNELS 3 Zrotation Yrotation Xrotation
							End Site
							{
								OFFSET -0.00310 1.39537 -0.05348
							}
						}
					}
				}
				JOINT LeftShoulder
				{
					OFFSET 0 0 0
					CHANNELS 3 Zrotation Yrotation Xrotation
					JOINT LeftArm
					{
						OFFSET 2.71932 0.62535 0.37316
						CHANNELS 3 Zrotation Yrotation Xrotation
						JOINT LeftForeArm
						{
							OFFSET 4.47366 -0.00000 0.00000
							CHANNELS 3 Zrotation Yrotation Xrotation
							JOINT LeftHand
							{
								OFFSET 3.19948 -0.00000 -0.00000
								CHANNELS 3 Zrotation Yrotation Xrotation
								JOINT LeftFingerBase
								{
									OFFSET 0 0 0
									CHANNELS 3 Zrotation Yrotation Xrotation
									JOINT LeftHandIndex1
									{
										OFFSET 0.49267 -0.00000 -0.00000
										CHANNELS 3 Zrotation Yrotation Xrotation
										End Site
										{
											OFFSET 0.39720 -0.00000 -0.00000
										}
									}
								}
								JOINT LThumb
								{
									OFFSET 0 0 0
									CHANNELS 3 Zrotation Yrotation Xrotation
									End Site
									{
										OFFSET 0.40327 -0.00000 0.40327
									}
								}
							}
						}
					}
				}
				JOINT RightShoulder
				{
					OFFSET 0 0 0
					CHANNELS 3 Zrotation Yrotation Xrotation
					JOINT RightArm
					{
						OFFSET -2.97334 0.70851 0.47631
						CHANNELS 3 Zrotation Yrotation Xrotation
						JOINT RightForeArm
						{
							OFFSET -4.32690 -0.00000 -0.00000
							CHANNELS 3 Zrotation Yrotation Xrotation
							JOINT RightHand
							{
								OFFSET -3.18960 -0.00000 0.00000
								CHANNELS 3 Zrotation Yrotation Xrotation
								JOINT RightFingerBase
								{
									OFFSET 0 0 0
									CHANNELS 3 Zrotation Yrotation Xrotation
									JOINT RightHandIndex1
									{
										OFFSET -0.46450 -0.00000 -0.00000
										CHANNELS 3 Zrotation Yrotation Xrotation
										End Site
										{
											OFFSET -0.37449 -0.00000 -0.00000
										}
									}
								}
								JOINT RThumb
								{
									OFFSET 0 0 0
									CHANNELS 3 Zrotation Yrotation Xrotation
									End Site
									{
										OFFSET -0.38021 -0.00000 0.38021
									}
								}
							}
						}
					}
				}
			}
		}
	}
}
MOTION
Frames: 8
Frame Time: .0083333
9.7257 15.2005 18.9827 0 0 0 0 0 0 -21 0 0 0 0 0 0 0 0 0 0 0 0 0 0 21 0 0 0 0 0 0 0 0 0 0 0 0 0 0 0 0 0 0 0 0 0 0 -16 0 0 21 0 0 11 0 0 0 -8 0 0 0 0 0 0 0 0 0 0 0 0 0 0 0 0 0 0 0 0 8 0 0 0 0 0 0 0 0 0 0 0 0 0 0 0 0 0
9.7257 15.2005 18.9827 -178.7090 -17.6544 -169.8590 0.0000 0.0000 0.0000 -26.4955 -7.1209 -8.7804 3.2720 11.1228 32.6951 2.9749 11.5963 -38.1790 0.3896 -4.0080 -11.0991 0.0000 0.0000 0.0000 17.2758 18.4245 -31.8196 -4.9474 -13.3243 40.5949 -0.5278 -3.8777 -15.6894 -0.0021 -0.2958 0.8126 1.9482 7.3657 -4.6147 -1.9477 9.7341 -1.0868 -2.4062 4.8631 2.0992 12.8264 11.4072 -1.0576 -3.5365 14.8670 10.3266 -2.3031 7.6038 4.5108 0.0000 0.0000 0.0000 -71.1626 2.7920 73.0189 103.4263 -59.3078 -71.6005 -0.0000 0.0000 -3.2565 21.0365 -0.5775 -0.2221 -7.1250 0.0000 -0.0000 -4.3300 29.3486 1.6563 0.0000 0.0000 0.0000 86.5088 -14.5726 30.6875 -81.2305 59.7074 -52.4128 0.0000 0.0000 13.1174 -25.3132 -20.6967 9.4899 7.1250 -0.0000 -0.0000 3.3632 -52.6305 -0.6321
9.7392 15.1967 19.0340 -178.3610 -17.9265 -169.8040 0.0000 0.0000 0.0000 -26.2256 -8.4241 -8.7941 3.3172 11.1917 32.9290 3.0565 12.2211 -38.9678 0.3249 -3.6639 -10.1330 0.0000 0.0000 0.0000 17.5709 18.1390 -32.3065 -4.9231 -13.2966 40.4893 -0.5081 -3.7651 -15.3699 -0.0003 -0.1081 0.2969 2.0214 7.1924 -4.6891 -1.8222 9.4959 -1.0968 -2.3294 4.7440 2.1060 12.1928 10.5158 -1.6805 -2.5837 13.4932 10.9863 -1.9908 6.9397 4.5972 0.0000 0.0000 0.0000 -71.0626 3.1527 73.0710 103.2343 -59.3277 -71.4354 -0.0000 0.0000 -3.2842 20.3142 -0.2359 -0.0873 -7.1250 0.0000 -0.0000 -4.9116 29.7110 1.8377 0.0000 0.0000 0.0000 86.5014 -14.6178 31.0054 -80.7691 59.6756 -52.0145 0.0000 0.0000 13.1992 -25.1008 -20.3758 9.2635 7.1250 -0.0000 -0.0000 3.4947 -52.2475 -0.6241
9.7546 15.1945 19.0845 -178.1960 -18.2002 -169.7520 0.0000 0.0000 0.0000 -26.0684 -9.2947 -8.8552 3.3387 11.2242 33.0397 3.0621 12.6298 -39.2538 0.3139 -3.6019 -9.9592 0.0000 0.0000 0.0000 17.6641 18.0028 -32.7479 -4.9370 -13.3125 40.5500 -0.4975 -3.7646 -15.2349 -0.0002 -0.0814 0.2236 1.8320 6.9545 -4.7701 -1.6782 9.1862 -0.9974 -2.0915 4.5897 2.1816 11.4623 9.4338 -2.2048 -1.7099 11.8897 11.5153 -1.7092 6.1575 4.6319 0.0000 -0.0000 0.0000 -71.0222 3.3850 73.0194 102.8686 -59.3649 -71.1208 -0.0000 0.0000 -3.0942 19.8474 -0.3728 -0.1345 -7.1250 0.0000 -0.0000 -5.2702 29.5641 1.9913 0.0000 -0.0000 0.0000 86.2563 -14.4385 31.4562 -80.2900 59.6407 -51.6011 0.0000 0.0000 13.3978 -24.9683 -20.3963 9.2175 7.1250 -0.0000 -0.0000 3.6350 -52.2452 -0.6490
9.7716 15.1941 19.1299 -178.2850 -18.4014 -169.6750 0.0000 0.0000 0.0000 -26.0872 -9.6364 -9.0717 3.3642 11.2626 33.1706 3.0295 12.7283 -39.1605 0.3563 -3.8347 -10.6120 0.0000 0.0000 0.0000 17.5491 17.7412 -33.1709 -4.9578 -13.3361 40.6399 -0.5072 -3.5355 -15.2115 -0.0015 -0.2470 0.6786 1.3713 6.7410 -4.8181 -1.6020 8.9262 -0.8362 -1.7730 4.4589 2.2784 10.5870 8.1633 -2.7489 -0.6964 10.0211 12.0202 -1.3748 5.2464 4.6578 -0.0000 -0.0000 0.0000 -71.0359 3.5240 72.8955 102.4619 -59.4050 -70.7707 -0.0000 0.0000 -2.7710 19.6690 -0.4259 -0.1522 -7.1250 0.0000 -0.0000 -5.4070 29.5072 2.0508 -0.0000 -0.0000 0.0000 86.2737 -14.2634 31.4966 -80.1519 59.6303 -51.4819 0.0000 0.0000 13.9934 -24.7805 -20.0860 9.0090 7.1250 -0.0000 -0.0000 3.7434 -51.8794 -0.6348
9.7910 15.1910 19.1717 -178.4320 -18.5016 -169.6040 0.0000 0.0000 0.0000 -26.1299 -9.7858 -9.3151 3.3851 11.2937 33.2771 2.9954 12.6981 -38.9775 0.3761 -3.9389 -10.9049 0.0000 0.0000 0.0000 17.3809 17.4532 -33.6108 -4.9991 -13.3827 40.8186 -0.5193 -3.1529 -15.1290 -0.0014 -0.2389 0.6563 0.8547 6.5040 -4.8540 -1.5614 8.6400 -0.6485 -1.4616 4.3139 2.3967 9.6866 6.8059 -3.4026 0.3900 8.0038 12.6892 -1.0086 4.2689 4.7774 0.0000 -0.0000 0.0000 -71.0346 3.8103 72.4979 102.0623 -59.4430 -70.4267 -0.0000 0.0000 -2.4220 19.3795 -0.4033 -0.1419 -7.1250 0.0000 -0.0000 -5.6347 29.5302 2.1348 0.0000 -0.0000 0.0000 86.4562 -14.0432 31.4894 -80.0105 59.6196 -51.3599 0.0000 0.0000 14.8068 -24.4110 -19.7536 8.7207 7.1250 -0.0000 -0.0000 4.0289 -51.4585 -0.6418
9.8100 15.1850 19.2110 -178.6410 -18.5268 -169.5550 0.0000 0.0000 0.0000 -26.1820 -9.4835 -9.6847 3.4053 11.3239 33.3803 2.9353 12.5024 -38.5593 0.4280 -4.1988 -11.6366 0.0000 0.0000 0.0000 17.1584 17.0734 -34.0540 -5.0582 -13.4490 41.0734 -0.5282 -2.6130 -14.9283 -0.0003 -0.1204 0.3308 0.2774 6.2103 -4.9144 -1.4968 8.2838 -0.3980 -1.0907 4.1320 2.5847 8.6670 5.4367 -3.8700 1.3932 6.0081 13.2925 -0.6503 3.2941 4.8846 -0.0000 -0.0000 0.0000 -71.0975 4.3306 71.7692 101.8061 -59.4667 -70.2061 -0.0000 0.0000 -1.9476 18.9474 -0.5776 -0.1983 -7.1250 0.0000 -0.0000 -5.9622 29.3453 2.2864 -0.0000 -0.0000 0.0000 86.1356 -13.5672 32.0434 -79.4020 59.5713 -50.8351 0.0000 0.0000 15.2566 -24.1484 -19.5827 8.5458 7.1250 -0.0000 -0.0000 4.2476 -51.2302 -0.6529
9.8260 15.1808 19.2493 -178.9090 -18.5157 -169.5890 0.0000 0.0000 0.0000 -26.2610 -8.5038 -10.2015 3.4280 11.3576 33.4955 2.8577 12.0096 -37.8594 0.4786 -4.4366 -12.3082 0.0000 0.0000 0.0000 16.9758 16.3882 -34.5158 -5.1344 -13.5335 41.4000 -0.5382 -1.8491 -14.6521 -0.0004 -0.1246 0.3423 -0.3593 5.8733 -4.8996 -1.3678 7.8749 -0.0733 -0.6297 3.9210 2.7971 7.5735 4.1025 -4.0990 2.1935 4.1190 13.7965 -0.3384 2.3565 4.9655 0.0000 -0.0000 0.0000 -71.3604 4.9542 70.7741 101.6912 -59.4772 -70.1071 -0.0000 0.0000 -1.4378 18.5647 -0.7117 -0.2390 -7.1250 0.0000 -0.0000 -6.2527 29.2036 2.4202 0.0000 -0.0000 0.0000 85.3717 -12.9418 32.9905 -78.8906 59.5285 -50.3942 0.0000 0.0000 15.2050 -24.0480 -19.4242 8.4411 7.1250 -0.0000 -0.0000 4.3068 -51.0440 -0.6423
